HIERARCHY
ROOT Hips
{
  OFFSET -1.00283 91.6471 -3.20329
  CHANNELS 6 Xposition Yposition Zposition Zrotation Xrotation Yrotation
  JOINT LeftHip
  {
    OFFSET 7.742 0 0
    CHANNELS 6 Xposition Yposition Zposition Zrotation Xrotation Yrotation
    JOINT LeftKnee
    {
      OFFSET 0 -41.6894 0
      CHANNELS 6 Xposition Yposition Zposition Zrotation Xrotation Yrotation
      JOINT LeftAnkle
      {
        OFFSET 0 -40.5157 0
        CHANNELS 6 Xposition Yposition Zposition Zrotation Xrotation Yrotation
        End Site
        {
          OFFSET 0 -7.04228 0
        }
      }
    }
  }
  JOINT RightHip
  {
    OFFSET -7.742 0 0
    CHANNELS 6 Xposition Yposition Zposition Zrotation Xrotation Yrotation
    JOINT RightKnee
    {
      OFFSET 0 -41.6894 0
      CHANNELS 6 Xposition Yposition Zposition Zrotation Xrotation Yrotation
      JOINT RightAnkle
      {
        OFFSET 0 -40.5157 0
        CHANNELS 6 Xposition Yposition Zposition Zrotation Xrotation Yrotation
        End Site
        {
          OFFSET 0 -7.04228 0
        }
      }
    }
  }
  JOINT Chest
  {
    OFFSET 0 12.9605 0
    CHANNELS 6 Xposition Yposition Zposition Zrotation Xrotation Yrotation
    JOINT Chest2
    {
      OFFSET 0 14.8294 0
      CHANNELS 6 Xposition Yposition Zposition Zrotation Xrotation Yrotation
      JOINT LeftCollar
      {
        OFFSET 2.39257 9.45743 3.97257
        CHANNELS 6 Xposition Yposition Zposition Zrotation Xrotation Yrotation
        JOINT LeftShoulder
        {
          OFFSET 13.114 0 0
          CHANNELS 6 Xposition Yposition Zposition Zrotation Xrotation Yrotation
          JOINT LeftElbow
          {
            OFFSET 0 -27.2663 0
            CHANNELS 6 Xposition Yposition Zposition Zrotation Xrotation Yrotation
            JOINT LeftWrist
            {
              OFFSET 0 -22.1651 0
              CHANNELS 6 Xposition Yposition Zposition Zrotation Xrotation Yrotation
              End Site
              {
                OFFSET 0 -16.6351 0
              }
            }
          }
        }
      }
      JOINT RightCollar
      {
        OFFSET -2.39257 9.45743 3.97257
        CHANNELS 6 Xposition Yposition Zposition Zrotation Xrotation Yrotation
        JOINT RightShoulder
        {
          OFFSET -13.6783 0 0
          CHANNELS 6 Xposition Yposition Zposition Zrotation Xrotation Yrotation
          JOINT RightElbow
          {
            OFFSET 0 -25.0091 0
            CHANNELS 6 Xposition Yposition Zposition Zrotation Xrotation Yrotation
            JOINT RightWrist
            {
              OFFSET 0 -22.1651 0
              CHANNELS 6 Xposition Yposition Zposition Zrotation Xrotation Yrotation
              End Site
              {
                OFFSET 0 -16.116 0
              }
            }
          }
        }
      }
      JOINT Neck
      {
        OFFSET 0 9.14143 0
        CHANNELS 6 Xposition Yposition Zposition Zrotation Xrotation Yrotation
        JOINT Head
        {
          OFFSET 0 11.7146 0
          CHANNELS 6 Xposition Yposition Zposition Zrotation Xrotation Yrotation
          End Site
          {
            OFFSET 0 9.34459 0
          }
        }
      }
    }
  }
}
MOTION
Frames:	5
Frame Time:	0.00833333
0.577351 91.5883 2.39691 -1.47093 -2.96654 -2.89887 7.742 0 0 1.70981 5.4841 -1.05365 0 -41.6894 -5.01186e-016 -2.51371 15.4818 3.88462 -1.00237e-015 -40.5157 4.00949e-015 0.109968 -17.9266 0.686158 -7.742 0 -1.00237e-015 0.997743 7.40404 7.14802 1.00237e-015 -41.6894 0 4.19521 9.20169 1.6538 0 -40.5157 2.00475e-015 -5.80863 -14.1542 -11.7925 0 12.9605 -1.00237e-015 0.414242 -0.411737 -0.625442 0 14.8294 1.00237e-015 1.40771 -2.92426 -0.910506 2.39257 9.45743 3.97257 30.689 0.888958 3.76511 13.114 1.6038e-014 0 61.3098 -1.94604 3.96105 -1.6038e-014 -27.2663 0 1.30262 -5.2526e-006 -6.81225 1.6038e-014 -22.1651 0 -5.54333 -0.00673221 -0.091836 -2.39257 9.45743 3.97257 -34.3235 -0.834236 1.50282 -13.6783 4.81139e-014 2.00475e-015 -54.876 -0.766621 5.53086 0 -25.0091 0 -2.05282 -1.0855 3.29949 1.6038e-014 -22.1651 0 2.56789 10.3905 -0.193158 -5.01186e-016 9.14143 0 2.7465 23.4327 1.55682 -2.00475e-015 11.7146 8.01898e-015 -6.40608 -12.4115 3.81035 
0.573579 91.5878 2.40158 -1.47292 -2.97249 -2.90783 7.742 -1.6038e-014 0 1.71126 5.50534 -1.05753 1.00237e-015 -41.6894 0 -2.51354 15.4605 3.90656 0 -40.5157 2.00475e-015 0.101218 -17.9277 0.670545 -7.742 0 -2.00475e-015 1.00039 7.41181 7.1445 0 -41.6894 0 4.19521 9.20178 1.66517 5.01186e-016 -40.5157 2.00475e-015 -5.8087 -14.1582 -11.7926 2.50593e-016 12.9605 -1.00237e-015 0.408481 -0.416972 -0.625442 -2.50593e-016 14.8294 0 1.4086 -2.90558 -0.91049 2.39257 9.45743 3.97257 30.6871 0.888712 3.76446 13.114 1.6038e-014 0 61.3138 -1.96407 3.97542 0 -27.2663 0 1.31444 -5.25259e-006 -6.81972 -3.20759e-014 -22.1651 2.00475e-015 -5.60015 0.0149349 -0.0906359 -2.39257 9.45743 3.97257 -34.3201 -0.836228 1.50943 -13.6783 3.20759e-014 0 -54.9249 -0.752236 5.37398 -1.6038e-014 -25.0091 0 -1.96652 -1.1378 3.48765 0 -22.1651 0 2.60336 10.3889 -0.195782 5.01186e-016 9.14143 0 2.79581 23.4303 1.52933 0 11.7146 0 -6.46971 -12.3839 3.81513 
0.569818 91.5873 2.4062 -1.47488 -2.97834 -2.91676 7.742 0 1.00237e-015 1.7126 5.52668 -1.06183 0 -41.6894 -1.00237e-015 -2.51335 15.4387 3.93021 1.00237e-015 -40.5157 0 0.0915703 -17.9289 0.653288 -7.742 1.6038e-014 2.00475e-015 1.00298 7.41935 7.14052 -1.00237e-015 -41.6894 1.00237e-015 4.19521 9.20193 1.67694 5.01186e-016 -40.5157 0 -5.80879 -14.1627 -11.7926 7.5178e-016 12.9605 1.00237e-015 0.402881 -0.422157 -0.625442 0 14.8294 -1.00237e-015 1.40912 -2.88703 -0.910476 2.39257 9.45743 3.97257 30.6852 0.888484 3.76387 13.114 0 0 61.3178 -1.9818 3.9916 0 -27.2663 0 1.32665 -5.25259e-006 -6.82885 1.6038e-014 -22.1651 0 -5.65565 0.0370458 -0.08934 -2.39257 9.45743 3.97257 -34.3165 -0.838317 1.51636 -13.6783 0 -2.00475e-015 -54.9767 -0.736215 5.20563 -1.6038e-014 -25.0091 0 -1.87436 -1.19291 3.68018 0 -22.1651 -1.00237e-015 2.63442 10.3859 -0.19803 0 9.14143 -4.00949e-015 2.84719 23.428 1.50035 -4.00949e-015 11.7146 8.01898e-015 -6.53604 -12.3559 3.81971 
0.566035 91.5868 2.41091 -1.47692 -2.98438 -2.92574 7.742 0 0 1.71417 5.54781 -1.0653 0 -41.6894 -5.01186e-016 -2.51315 15.4179 3.95042 1.00237e-015 -40.5157 0 0.0837162 -17.9297 0.639319 -7.742 1.6038e-014 -1.00237e-015 1.00567 7.42736 7.13747 0 -41.6894 -1.00237e-015 4.19521 9.20196 1.6879 0 -40.5157 -2.00475e-015 -5.80886 -14.1663 -11.7928 -2.50593e-016 12.9605 0 0.39696 -0.427441 -0.625443 0 14.8294 0 1.41037 -2.86823 -0.910461 2.39257 9.45743 3.97257 30.6834 0.888222 3.76315 13.114 1.6038e-014 0 61.322 -2.00013 4.00418 1.6038e-014 -27.2663 0 1.3381 -5.25258e-006 -6.83465 0 -22.1651 0 -5.7138 0.0582691 -0.0882357 -2.39257 9.45743 3.97257 -34.3134 -0.840213 1.52265 -13.6783 0 0 -55.0224 -0.723429 5.06023 -1.6038e-014 -25.0091 0 -1.79287 -1.24229 3.86399 1.6038e-014 -22.1651 1.00237e-015 2.67432 10.3858 -0.201029 -5.01186e-016 9.14143 0 2.89444 23.4255 1.47433 0 11.7146 -8.01898e-015 -6.597 -12.3285 3.82468 
0.562196 91.5866 2.41581 -1.47916 -2.99088 -2.93482 7.742 -1.6038e-014 1.00237e-015 1.7163 5.56838 -1.0667 -1.00237e-015 -41.6894 -5.01186e-016 -2.51296 15.3992 3.96204 1.00237e-015 -40.5157 -2.00475e-015 0.0803478 -17.9293 0.633572 -7.742 -1.6038e-014 -1.00237e-015 1.0086 7.43655 7.13672 -1.00237e-015 -41.6894 0 4.19521 9.20169 1.69686 1.00237e-015 -40.5157 6.01424e-015 -5.80889 -14.1678 -11.7932 0 12.9605 0 0.390233 -0.432975 -0.625443 -2.50593e-016 14.8294 0 1.41345 -2.84877 -0.910445 2.39257 9.45743 3.97257 30.6818 0.887879 3.76211 13.114 0 0 61.3268 -2.01997 4.00781 1.6038e-014 -27.2663 4.00949e-015 1.34766 -5.25258e-006 -6.83213 -1.6038e-014 -22.1651 0 -5.77858 0.077273 -0.0876101 -2.39257 9.45743 3.97257 -34.3112 -0.841632 1.52735 -13.6783 6.41519e-014 0 -55.0528 -0.718758 4.9722 3.20759e-014 -25.0091 0 -1.73872 -1.27741 4.02596 0 -22.1651 -1.00237e-015 2.73631 10.3934 -0.205904 1.00237e-015 9.14143 2.00475e-015 2.9314 23.4225 1.45573 0 11.7146 -8.01898e-015 -6.64455 -12.3024 3.83064 
